<?xml version="1.0" encoding="utf-8"?>
<!-- Generator: Adobe Illustrator 19.0.0, SVG Export Plug-In . SVG Version: 6.00 Build 0)  -->
<svg version="1.1" id="Layer_1" xmlns="http://www.w3.org/2000/svg" xmlns:xlink="http://www.w3.org/1999/xlink" x="0px" y="0px"
	 viewBox="-107 261 397 272" style="enable-background:new -107 261 397 272;" xml:space="preserve">
<style type="text/css">
	.st0{fill:#005BAB;}
</style>
<g transform="translate(0.000000,272.000000) scale(0.100000,-0.100000)">
	<g>
		<path class="st0" d="M-1070-1250v-1360H915h1985v1360V110H915h-1985V-1250z M987-141c17-13,109-112,204-219s214-240,263-295
			c379-424,831-932,881-990c115-133,245-295,245-305c0-6-62,38-137,97s-198,153-273,208c-361,267-964,727-1140,870
			C887-659,861-644,845-670c-5-9-364-306-810-672c-223-183-773-608-786-608c-17,0-9,11,84,123c51,62,106,128,122,148
			c17,20,116,135,221,255c104,120,354,408,554,639c585,676,589,680,676,673C941-115,967-124,987-141z M963-867
			c153-107,1172-835,1181-844c5-5,7-11,4-15c-3-3-270,166-593,376S950-959,928-948l-40,21l-46-22c-92-44-261-163-1002-701
			c-126-91-130-94-130-82c0,11,234,205,620,513c357,285,520,409,538,409C876-810,919-836,963-867z M30-1864l85-33l3-181
			c2-177,2-181-21-208c-20-23-28-26-60-20c-45,8-57,29-57,96v51l-112-3l-113-3l-3-57c-2-46-7-61-25-73c-30-21-63-19-87,5
			c-19,19-20,31-18,207l3,187l80,32C-180-1818-88-1818,30-1864z M877-1862l33-32v-188c0-175-1-189-20-208c-25-25-61-26-91-1
			c-23,18-24,25-27,175l-3,156H539H310v-153c0-140-2-155-20-175c-26-28-60-28-94-1l-26,20v220v219h337h337L877-1862z M1377-1861
			c43-17,82-35,88-40c6-6,9-82,7-192c-2-170-4-183-23-199c-28-24-64-23-89,2c-15,15-20,33-20,75v55h-115h-115v-55c0-42-5-60-20-75
			c-25-25-61-26-89-3c-20,17-21,28-22,207l-1,189l84,33C1178-1818,1267-1817,1377-1861z M1655-1855c20-19,25-34,25-75v-50h110h110
			v53c0,44,4,58,24,76c20,19,32,22,60,17c20-4,40-15,46-26s10-100,10-211c0-184-1-194-22-216c-27-29-65-29-95-1c-20,19-23,31-23,100
			v78h-110h-110v-75c0-67-3-79-25-100c-29-30-68-32-95-5c-19,19-20,33-20,220s1,201,20,220C1587-1823,1626-1825,1655-1855z
			 M2220-1850c19-19,20-33,20-220s-1-201-20-220c-25-25-61-26-91-1c-24,19-24,21-24,221s0,202,24,221C2159-1824,2195-1825,2220-1850
			z M610-2132c0-158-7-178-64-178c-64,0-76,31-76,196v124h70h70V-2132z"/>
		<path class="st0" d="M-210-1973c-31-14-40-26-33-44c4-10,32-13,114-13c103,0,109,1,109,21C-20-1968-147-1944-210-1973z"/>
		<path class="st0" d="M487-1857c-2-5-2-25,0-45l5-38h54h54v45v45h-54C516-1850,489-1853,487-1857z"/>
		<path class="st0" d="M1143-1976c-22-9-33-21-33-34c0-19,7-20,115-20c109,0,115,1,115,21C1340-1966,1214-1945,1143-1976z"/>
	</g>
</g>
</svg>
